<svg xmlns="http://www.w3.org/2000/svg" viewBox="0 0 300 210" fill="none">
  <rect width="300" height="210" rx="6" fill="#0f172a"/>
  <rect x="8" y="8" width="284" height="26" rx="4" fill="rgba(56,189,248,0.1)"/>
  <circle cx="18" cy="21" r="3" fill="#38bdf8"/>
  <circle cx="30" cy="21" r="3" fill="#38bdf8" opacity="0.5"/>
  <circle cx="42" cy="21" r="3" fill="#38bdf8" opacity="0.3"/>
  <rect x="8" y="44" width="130" height="12" rx="2" fill="rgba(56,189,248,0.2)"/>
  <rect x="8" y="64" width="200" height="8" rx="2" fill="rgba(255,255,255,0.05)"/>
  <rect x="8" y="78" width="170" height="8" rx="2" fill="rgba(255,255,255,0.05)"/>
  <rect x="8" y="100" width="90" height="24" rx="4" fill="rgba(56,189,248,0.2)"/>
  <rect x="104" y="100" width="90" height="24" rx="4" fill="rgba(56,189,248,0.1)"/>
  <rect x="8" y="140" width="284" height="62" rx="4" fill="rgba(56,189,248,0.05)"/>
  <rect x="20" y="152" width="60" height="8" rx="2" fill="rgba(255,255,255,0.05)"/>
  <rect x="20" y="168" width="40" height="16" rx="3" fill="rgba(56,189,248,0.15)"/>
  <rect x="90" y="152" width="60" height="8" rx="2" fill="rgba(255,255,255,0.05)"/>
  <rect x="90" y="168" width="50" height="16" rx="3" fill="rgba(56,189,248,0.15)"/>
  <rect x="20" y="195" width="100" height="3" rx="1.5" fill="rgba(255,255,255,0.03)"/>
</svg>
