<svg xmlns="http://www.w3.org/2000/svg" viewBox="0 0 300 210" fill="none">
  <rect width="300" height="210" rx="6" fill="#0f172a"/>
  <!-- Header -->
  <rect x="8" y="8" width="284" height="26" rx="4" fill="rgba(56,189,248,0.1)"/>
  <circle cx="18" cy="21" r="3" fill="#38bdf8"/>
  <circle cx="30" cy="21" r="3" fill="#38bdf8" opacity="0.5"/>
  <circle cx="42" cy="21" r="3" fill="#38bdf8" opacity="0.3"/>
  <!-- Form fields -->
  <rect x="8" y="44" width="90" height="10" rx="3" fill="rgba(56,189,248,0.15)"/>
  <rect x="8" y="60" width="284" height="12" rx="3" fill="rgba(255,255,255,0.04)"/>
  <rect x="8" y="82" width="120" height="10" rx="3" fill="rgba(56,189,248,0.15)"/>
  <rect x="8" y="98" width="284" height="12" rx="3" fill="rgba(255,255,255,0.04)"/>
  <rect x="8" y="120" width="100" height="10" rx="3" fill="rgba(56,189,248,0.15)"/>
  <rect x="8" y="136" width="284" height="12" rx="3" fill="rgba(255,255,255,0.04)"/>
  <!-- Select dropdown -->
  <rect x="8" y="158" width="140" height="10" rx="3" fill="rgba(56,189,248,0.15)"/>
  <rect x="8" y="174" width="140" height="12" rx="3" fill="rgba(255,255,255,0.04)"/>
  <!-- Submit button -->
  <rect x="8" y="196" width="80" height="18" rx="4" fill="rgba(56,189,248,0.25)"/>
  <rect x="18" y="200" width="56" height="10" rx="2" fill="rgba(56,189,248,0.3)"/>
</svg>
