<svg xmlns="http://www.w3.org/2000/svg" viewBox="0 0 300 210" fill="none">
  <rect width="300" height="210" rx="6" fill="#0f172a"/>
  <rect x="8" y="8" width="284" height="26" rx="4" fill="rgba(255,160,100,0.1)"/>
  <circle cx="18" cy="21" r="3" fill="#ff9664"/>
  <circle cx="30" cy="21" r="3" fill="#ff9664" opacity="0.5"/>
  <circle cx="42" cy="21" r="3" fill="#ff9664" opacity="0.3"/>
  <!-- API flow -->
  <rect x="8" y="44" width="80" height="24" rx="4" fill="rgba(255,160,100,0.15)"/>
  <line x1="88" y1="56" x2="120" y2="56" stroke="#ff9664" stroke-width="1.5" opacity="0.4" stroke-dasharray="3,3"/>
  <rect x="120" y="44" width="60" height="24" rx="4" fill="rgba(255,160,100,0.1)"/>
  <line x1="180" y1="56" x2="212" y2="56" stroke="#ff9664" stroke-width="1.5" opacity="0.4" stroke-dasharray="3,3"/>
  <rect x="212" y="44" width="80" height="24" rx="4" fill="rgba(255,160,100,0.15)"/>
  <!-- JSON block -->
  <rect x="8" y="78" width="284" height="100" rx="4" fill="rgba(255,160,100,0.04)"/>
  <rect x="20" y="90" width="80" height="6" rx="2" fill="rgba(255,160,100,0.12)"/>
  <rect x="20" y="102" width="120" height="6" rx="2" fill="rgba(255,255,255,0.04)"/>
  <rect x="20" y="114" width="100" height="6" rx="2" fill="rgba(255,255,255,0.04)"/>
  <rect x="20" y="126" width="140" height="6" rx="2" fill="rgba(255,255,255,0.04)"/>
  <rect x="20" y="138" width="90" height="6" rx="2" fill="rgba(255,255,255,0.04)"/>
  <rect x="20" y="150" width="60" height="6" rx="2" fill="rgba(255,255,255,0.04)"/>
  <!-- Status -->
  <rect x="220" y="188" width="72" height="16" rx="3" fill="rgba(100,200,100,0.2)"/>
  <circle cx="232" cy="196" r="3" fill="#64c864"/>
</svg>
